<svg version="1" xmlns="http://www.w3.org/2000/svg" width="2858.667" height="2858.667" viewBox="0 0 2144.000000 2144.000000"><path d="M1534.4 1.9c-8.8 5.4-8.3 8.5 7.8 50.6 13 34 20.6 50.2 31.3 67 1.9 2.9 4 5.9 4.8 6.6.7.8 2.1 2.5 3 3.9 1.6 2.5 1.6 2.7-5.5 12-6.5 8.6-27.1 35.3-30.1 39-9 11.2-32 42.9-71.4 98.5-8.6 12.1-22.2 30.8-30.2 41.5-26.2 34.9-61.9 84.8-67.6 94.8-.5.9-1.2 1.9-1.5 2.2-.3.3-2 2.7-3.8 5.5-1.8 2.7-3.7 5.7-4.2 6.5-.6.8-3.8 5.7-7.1 10.7-7.9 12-6.4 11.9-29.4 2.8-19.4-7.6-44.9-16.2-53-17.9-1.1-.3-5.5-1.4-9.8-2.5-16.1-4.2-21.6-5.1-40.9-6.5l-5.7-.5-3.2 5.7c-1.7 3.1-8.4 13.3-14.7 22.7-6.4 9.3-14.9 21.9-19 28-4.1 6-11.2 16.4-15.7 23-4.5 6.6-13 19.2-19 28-10.8 16-18.7 27.6-38.2 56-5.6 8.2-12.3 17.9-14.7 21.5-11 16.1-24.7 35.7-41.2 58.8-6 8.4-11.6 16.3-12.4 17.6-.8 1.2-3.9 5.6-6.9 9.7-22.4 30.5-44.5 60.3-45.1 60.9-.3.3-3.1 3.9-6.3 8-3.1 4.1-6 7.9-6.5 8.5-.4.5-2.4 3.2-4.5 6-2 2.7-4 5.4-4.5 6-2 2.6-24.9 33.8-26.2 35.9-.8 1.3-2.3 3.4-3.3 4.7-1 1.3-5.8 8-10.7 14.9-4.9 6.9-9.3 12.9-9.7 13.5-.5.5-5.8 8-11.9 16.5-9.5 13.4-24.8 34.7-66.7 93-4.9 6.9-9.7 13.5-10.6 14.6-.9 1.2-2.2 3-2.9 4-1.3 2-16.8 23.6-32.1 44.9-5.2 7.1-11 15.2-12.9 18-2 2.7-6.7 9.3-10.6 14.5-3.8 5.2-10 13.5-13.6 18.5-3.7 4.9-11.8 16-18.1 24.5-6.3 8.5-13 17.7-14.9 20.4-1.9 2.7-4.7 6.5-6.1 8.5-7.3 10.3-18.9 27.3-18.9 27.7 0 .3-.5 1-1.1 1.7-.6.7-8.9 13.1-18.4 27.7-9.6 14.6-18.2 27.6-19.2 29-1 1.4-1.7 2.8-1.5 3.2.1.5-.2.8-.6.8-.4 0-1.6 1.5-2.6 3.3-1.8 3.1-10 15.9-15.5 24.1-1.4 2.1-3 4.6-3.6 5.6-.5 1-5.5 8.8-11 17.4-5.5 8.6-10.7 16.7-11.5 18.1-.8 1.3-5.5 8.8-10.5 16.6-10 15.8-9.2 14.6-29.5 47.1-19.3 31.2-30.9 54.7-33.6 68.1-.2 1-.5 2.6-.8 3.5-2 6.8-3.1 19-3 34.2.2 18 2.6 31.8 9.6 54.8 5.8 19.3 12.3 42.4 13.3 47.3 1.2 5.6 1.4 27.5.3 32.1-.5 2.4-1.1 5-1.3 5.8-1.1 5.1-11 26.1-12.7 26.8-.5.2-.8.8-.8 1.2 0 .5-3.1 6.2-6.8 12.7-3.8 6.5-10.9 18.8-15.8 27.3-14 24.3-13.2 21.7-12.5 40.7.3 6.9-1.2 9.5-11.2 19.5-9.7 9.9-17.7 20.3-23.9 31.3-6.9 12.2-8.7 17.9-8.5 26.6.3 10.5 3.4 16.4 15.8 29.4 5.4 5.7 9.9 11.1 9.9 12 0 1.6-5.9 12.9-9.2 17.7-1 1.4-1.8 2.8-1.8 3.1 0 .3-1.7 3.6-3.9 7.4-2.1 3.7-4.9 8.8-6.3 11.3-2.2 3.8-9.4 16.2-13.3 22.8-.6.9-4.6 7.4-9 14.5-4.4 7-8.4 13.5-9 14.5-1 1.7-9.6 15.5-16 25.7-1.8 2.7-6.3 9.9-10 16-3.8 6-8.3 13.2-10.1 16-3.2 4.9-19 30.4-22.9 36.9-1.1 1.8-6.3 10.1-11.5 18.5-25.8 41.3-45.4 73.6-45.5 75.1 0 .3-.3.9-.7 1.5-1.1 1.9-4.5 8.1-10.6 19.6-6.2 11.7-7.2 15.2-5.1 19.2 3.2 6.1 6.1 5.1 19-6.6 15.8-14.4 24.5-25.3 75.9-95.7 10.7-14.6 19.7-26.7 20-27 .4-.3 2.4-3 4.5-6s4.2-5.9 4.7-6.5c.4-.5 6.1-8 12.5-16.5 9.6-12.8 40.1-52.4 43.4-56.4.5-.6 8.2-10.1 17.1-21.1 15.1-18.7 23.1-28.4 28.6-34.5 1.2-1.4 3.9-4.6 6-7.1 6.1-7.6 9.2-9.3 16-8.5 3.1.3 7.3.9 9.2 1.3 1.9.4 7.6.7 12.5.7 14-.1 18.3-2.4 34.2-18.8 7-7.2 16.2-16.9 20.3-21.5 20.2-22.7 21.6-23.9 29.3-26.2 10.7-3.2 16.5-7.5 36.2-26.9 36.1-35.6 43.3-41.7 56.5-48.2 11.9-5.9 18.7-7.1 40.5-7.3 19.6-.1 26.8-1.1 41.5-5.6 34.5-10.5 72.5-34.1 115-71.3 23-20.2 59-57.7 80.5-84 2.2-2.7 4.5-5.4 5-6 1.4-1.4 21.3-26.4 24-30 1.1-1.5 5-6.7 8.6-11.5 22.5-29.8 45.7-64.2 94.9-140.6 5.7-8.8 14-21.6 18.5-28.5 4.5-6.9 11.9-18.4 16.5-25.5 15.6-24 64.1-96.1 78.1-116 10.6-15 19.8-27.8 24.4-34 14-19 22.7-31.1 36-50 8-11.3 14.5-20.8 14.5-21.1 0-.2.7-1.2 1.5-2.1 1.2-1.4 9.6-13.3 16.5-23.3.6-.8 3.3-4.7 6-8.5 2.7-3.9 5.5-7.8 6.2-8.8 2.9-4.2 32-44.2 39.9-54.8 9.4-12.5 31.8-42.8 41.1-55.4 3.2-4.4 6.4-8.7 7.1-9.5.7-.9 13.6-18.9 28.7-40 37.1-52.1 57-78.8 69.4-93 1.7-2 4.2-5 5.6-6.7 12.1-14.8 43.3-47.3 49.9-52 1.3-.9 4.2-1.6 6.4-1.7 3.5-.1 4.5-.6 6.4-3.4 1.6-2.5 2.1-4.2 1.6-6.5-.8-4.2-7.8-18.3-16.6-33.5-4-6.7-7.6-13.1-8.2-14-3.9-6.9-27-37.7-31.9-42.8-.6-.6-3.6-4-6.7-7.5-3.2-3.5-8.7-9.5-12.3-13.3-3.7-3.8-6.9-7.9-7.2-9.1-.4-1.7 1.1-4.5 6-11.1 3.6-4.9 13.4-18.4 21.8-29.9 8.4-11.6 15.6-21.5 16-22 .4-.6 1.8-2.4 3.1-4 1.3-1.7 7.8-10.2 14.5-19 10.7-14.1 27-35.2 35.2-45.5 7.4-9.4 41.2-51.7 42.3-53 .6-.8 3.2-4 5.7-7s5-6.2 5.7-7c.7-.8 8.3-10.3 17-21 17.6-21.8 25-31.1 27.6-35.3 1-1.6 2.5-3.6 3.3-4.5.7-.9 6.1-8.5 11.8-16.7 5.8-8.3 10.9-15.5 11.3-16 .5-.6 3.3-4.5 6.3-8.8 6.3-9.2 6.5-9.3 17.5-1.8 9.4 6.4 17 9.4 26.5 10.7 5.6.8 21.6 2.3 30 2.9 3.6.2 9.7.7 13.5 1.1 3.9.3 9.5.8 12.5.9 6.2.3 19.7 1.5 23.2 2 1.3.2 6.4 1.4 11.4 2.7 6.5 1.7 10.6 2.2 14 1.9l4.9-.6.3-13.9.3-13.9-4.4-4.2c-9.1-8.5-25-21.7-36.4-29.9-19.7-14.3-41.7-30.4-42.8-31.3-.5-.5-6.4-4.8-13-9.6-14-10.1-41.2-30-43.7-31.9-.9-.7-6-4.5-11.3-8.3-17.7-12.9-86.8-63.9-89-65.7-.5-.5-12.9-9.7-27.5-20.6-25-18.7-51.7-38.8-55-41.5-19.5-15.7-38.9-29.2-51-35.2-15.3-7.7-23.7-9.6-28.6-6.6z"/></svg>